# xmcd
#
# Track frame offsets:
#	150
#	14128
#	28111
#	40605
#	53234
#	67459
#	79407
#	93907
#	108098
#	121429
#	135191
#	147316
#	161462
#	174811
#	188648
#
# Disc length: 2704 seconds
#
# Revision: 4
# Processed by: cddbd v1.4PL0 Copyright (c) Steve Scherf et al.
# Submitted via: CDmax 2.0
#
DISCID=c60a8e0f
DTITLE=Kokomo Arnold - Nothing But The Blues - Kokomo Arnold CD1
DYEAR=1900
DGENRE=Blues
TTITLE0=Backfence Picket Blues
TTITLE1=Fool Man Blues
TTITLE2=Long And Tall
TTITLE3=Sally Dog
TTITLE4=Cold Winter Blues
TTITLE5=Sister Jane Cross The Hall
TTITLE6=Wild Water Blues
TTITLE7=Laugh And Grin Blues
TTITLE8=Mean Old Twister
TTITLE9=Red Beans And Rice
TTITLE10=Set Down Gal
TTITLE11=Big Ship Blues
TTITLE12=Crying Blues
TTITLE13=Grandpa Got Drunk
TTITLE14=Black Mattie
EXTD=1- 6: Chicago, January 12, 1937 - Kokomo Arnold: vocals, guitar\n 7- 8
EXTD=: Chicago, March 12, 1937 - Kokomo Arnold: vocals, guitar\n 9-10: Chicag
EXTD=o, Narch 30, 1937 - Kokomo Arnold: vocals, guitar\n11-12: Chicago, Marc
EXTD=h 30,1937 - Kokomo Arnold: vocals, guitar, Peetie Wheatstraw: piano\n13-
EXTD=15: Chicago, May 7, 1937 - Kokomo Arnold: vocals, guitar\n\nAll songs b
EXTD=y JamesArnold
EXTT0=
EXTT1=
EXTT2=
EXTT3=
EXTT4=
EXTT5=
EXTT6=
EXTT7=
EXTT8=
EXTT9=
EXTT10=
EXTT11=
EXTT12=
EXTT13=
EXTT14=
PLAYORDER=
